Coordinates
version=1
nRows=18
nColumns=63
inDegrees=yes

Units are S.I. units (second, meters, Newtons, ...)
If the header above contains a line with 'inDegrees', this indicates whether rotational values are in degrees (yes) or radians (no).

endheader
time	pelvis_tilt	pelvis_list	pelvis_rotation	pelvis_tx	pelvis_ty	pelvis_tz	hip_flexion_r	hip_adduction_r	hip_rotation_r	knee_angle_r	knee_angle_r_beta	ankle_angle_r	subtalar_angle_r	mtp_angle_r	hip_flexion_l	hip_adduction_l	hip_rotation_l	knee_angle_l	knee_angle_l_beta	ankle_angle_l	subtalar_angle_l	mtp_angle_l	L5_S1_Flex_Ext	L5_S1_Lat_Bending	L5_S1_axial_rotation	L4_L5_Flex_Ext	L4_L5_Lat_Bending	L4_L5_axial_rotation	L3_L4_Flex_Ext	L3_L4_Lat_Bending	L3_L4_axial_rotation	L2_L3_Flex_Ext	L2_L3_Lat_Bending	L2_L3_axial_rotation	L1_L2_Flex_Ext	L1_L2_Lat_Bending	L1_L2_axial_rotation	L1_T12_Flex_Ext	L1_T12_Lat_Bending	L1_T12_axial_rotation	Abs_r3	Abs_r2	Abs_r1	Abs_t1	Abs_t2	neck_flexion	neck_bending	neck_rotation	arm_flex_r	arm_add_r	arm_rot_r	elbow_flex_r	pro_sup_r	wrist_flex_r	wrist_dev_r	arm_flex_l	arm_add_l	arm_rot_l	elbow_flex_l	pro_sup_l	wrist_flex_l	wrist_dev_l
0.949153	7.540971	3.261261	96.437156	0.119518	0.822349	0.793827	0.655153	5.837031	5.690990	10.211463	0.178224	26.882627	-4.740307	0.000000	-1.905665	-3.804112	10.299004	6.686556	0.116702	27.444214	-6.764151	0.000000	0.118220	0.755575	-0.733328	0.219546	1.004915	-0.779161	0.194223	1.837105	-0.779161	0.135113	1.837105	-0.641662	0.109779	1.540768	-0.595829	0.067551	1.170386	-0.549996	0.844432	8.547215	-4.078549	0.000000	0.000000	22.770423	4.204598	15.552917	7.118688	-23.924250	65.047217	30.075309	88.778347	-13.022052	4.732874	-2.067814	-18.840128	38.568896	39.916401	89.036261	-7.774356	12.063897
0.966102	7.533595	3.161131	96.138181	0.120331	0.822060	0.794187	0.935047	5.833009	5.979132	10.444334	0.182288	27.178366	-4.538590	0.000000	-1.844351	-3.798689	10.033863	6.648754	0.116043	27.494664	-6.755697	0.000000	0.117203	0.751810	-0.690228	0.217658	0.999907	-0.733367	0.192553	1.827950	-0.733367	0.133952	1.827950	-0.603949	0.108835	1.533091	-0.560810	0.066970	1.164553	-0.517671	0.837172	8.504623	-3.838840	0.000000	0.000000	22.955339	4.251400	15.643640	6.816585	-23.912971	65.123276	30.482145	89.318536	-12.823482	4.560850	-1.862400	-19.085843	40.118149	39.314059	89.076586	-7.893259	12.500855
0.983051	7.537082	3.052520	95.811225	0.121111	0.821778	0.794544	1.209377	5.838738	6.300838	10.650125	0.185880	27.462736	-4.330137	0.000000	-1.780818	-3.802382	9.654756	6.615241	0.115458	27.551088	-6.648973	0.000000	0.117071	0.750895	-0.631991	0.217412	0.998690	-0.671491	0.192335	1.825726	-0.671491	0.133800	1.825726	-0.552992	0.108712	1.531225	-0.513493	0.066894	1.163136	-0.473994	0.836224	8.494275	-3.514947	0.000000	0.000000	23.154680	4.281906	15.763247	6.291445	-23.895143	64.228988	31.033935	89.481420	-12.547102	4.516893	-1.658269	-19.248762	41.560779	38.682131	89.098501	-8.194075	12.629663
1.000000	7.553817	2.948204	95.471652	0.121804	0.821521	0.794869	1.458058	5.849932	6.579384	10.822492	0.188888	27.724072	-4.047167	0.000000	-1.725211	-3.820080	9.134246	6.588573	0.114992	27.620867	-6.393348	0.000000	0.116130	0.753056	-0.563917	0.215664	1.001564	-0.599162	0.190789	1.830980	-0.599162	0.132724	1.830980	-0.493427	0.107838	1.535631	-0.458182	0.066356	1.166483	-0.422938	0.829502	8.518717	-3.136336	0.000000	0.000000	23.387858	4.283269	15.879437	5.590482	-23.895526	62.431485	31.753349	89.310232	-11.991014	4.800297	-1.479193	-19.319340	42.797143	38.056754	89.088201	-8.616853	12.516564
1.016949	7.576823	2.841849	95.124738	0.122432	0.821277	0.795103	1.677384	5.863987	6.840628	10.950759	0.191127	27.949412	-3.741258	0.000000	-1.672250	-3.846274	8.495040	6.568072	0.114634	27.703786	-6.008160	0.000000	0.116021	0.756862	-0.490942	0.215463	1.006626	-0.521626	0.190611	1.840234	-0.521626	0.132600	1.840234	-0.429574	0.107737	1.543392	-0.398891	0.066294	1.172379	-0.368207	0.828727	8.561771	-2.730473	0.000000	0.000000	23.645685	4.314110	16.058316	4.752071	-23.899900	59.844546	32.608584	88.973059	-11.157903	5.353216	-1.395834	-19.289499	43.638681	37.488507	89.045285	-9.062133	12.176808
1.033898	7.590968	2.729051	94.790279	0.122985	0.821042	0.795259	1.878735	5.866877	7.076478	11.051405	0.192883	28.132460	-3.448541	0.000000	-1.607009	-3.863537	7.785743	6.566431	0.114606	27.790822	-5.543679	0.000000	0.118199	0.759595	-0.417921	0.219507	1.010261	-0.444041	0.194188	1.846878	-0.444041	0.135089	1.846878	-0.365681	0.109759	1.548965	-0.339561	0.067539	1.176612	-0.313441	0.844281	8.592686	-2.324350	0.000000	0.000000	23.911373	4.359747	16.236844	3.862982	-23.916895	56.781064	33.535698	88.724296	-10.181692	5.956073	-1.414757	-19.181482	44.075986	36.996070	88.976639	-9.497157	11.669730
1.050847	7.621137	2.614175	94.473102	0.123447	0.820816	0.795358	2.053340	5.884941	7.295724	11.108994	0.193889	28.258674	-3.186799	0.000000	-1.536702	-3.900930	7.016778	6.569229	0.114655	27.894213	-4.980968	0.000000	0.121556	0.764449	-0.345726	0.225741	1.016717	-0.367334	0.199704	1.858681	-0.367334	0.138926	1.858681	-0.302510	0.112877	1.558864	-0.280902	0.069457	1.184131	-0.259294	0.868261	8.647598	-1.922824	0.000000	0.000000	24.204520	4.434813	16.445709	2.937029	-23.959861	53.267401	34.581628	88.633622	-8.930307	6.715213	-1.510391	-18.996198	44.184398	36.557482	88.891487	-9.951874	11.016053
1.067797	7.640344	2.503287	94.198234	0.123829	0.820629	0.795470	2.207566	5.893597	7.483957	11.145242	0.194521	28.333844	-2.983869	0.000000	-1.454150	-3.930012	6.245147	6.590176	0.115020	27.991890	-4.376334	0.000000	0.125622	0.767014	-0.282666	0.233293	1.020129	-0.300333	0.206384	1.864919	-0.300333	0.143573	1.864919	-0.247333	0.116653	1.564096	-0.229666	0.071780	1.188105	-0.212000	0.897305	8.676620	-1.572106	0.000000	0.000000	24.464209	4.527498	16.629151	2.157777	-24.021523	50.031040	35.586585	88.542891	-7.880409	7.261062	-1.662526	-18.791639	44.042065	36.175400	88.804162	-10.403324	10.283046
1.084746	7.646784	2.397863	93.982229	0.124137	0.820487	0.795648	2.351172	5.889550	7.606326	11.174173	0.195026	28.372537	-2.810251	0.000000	-1.352466	-3.949650	5.505257	6.632157	0.115753	28.076862	-3.750663	0.000000	0.130385	0.766863	-0.229392	0.242137	1.019927	-0.243729	0.214209	1.864550	-0.243729	0.149016	1.864550	-0.200718	0.121075	1.563786	-0.186381	0.074502	1.187870	-0.172044	0.931324	8.674904	-1.275812	0.000000	0.000000	24.656694	4.624102	16.786540	1.523512	-24.086247	47.073689	36.523641	88.472526	-7.013117	7.559645	-1.805664	-18.608577	43.802895	35.830764	88.726503	-10.745651	9.533526
1.101695	7.624237	2.306023	93.821634	0.124418	0.820421	0.795931	2.472996	5.866538	7.761980	11.188863	0.195282	28.353642	-2.794344	0.000000	-1.245174	-3.942197	4.868150	6.679887	0.116586	28.112926	-3.198416	0.000000	0.134766	0.761343	-0.187475	0.250274	1.012587	-0.199192	0.221407	1.851130	-0.199192	0.154024	1.851130	-0.164040	0.125144	1.552531	-0.152323	0.077005	1.179321	-0.140606	0.962621	8.612468	-1.042678	0.000000	0.000000	24.749200	4.704119	16.858894	1.132898	-24.109009	44.856836	37.272733	88.385203	-6.610481	7.471047	-1.891042	-18.483550	43.653998	35.494564	88.658932	-11.095602	8.716329
1.118644	7.572240	2.227965	93.708132	0.124708	0.820420	0.796335	2.575589	5.828789	7.985859	11.192034	0.195338	28.279712	-2.970539	0.000000	-1.130079	-3.904431	4.363832	6.733273	0.117518	28.095354	-2.770099	0.000000	0.138710	0.750344	-0.152781	0.257599	0.997957	-0.162330	0.227887	1.824385	-0.162330	0.158532	1.824385	-0.133684	0.128806	1.530101	-0.124135	0.079259	1.162282	-0.114586	0.990792	8.488037	-0.849724	0.000000	0.000000	24.726085	4.756907	16.841815	0.945403	-24.087089	43.235174	37.852975	88.299767	-6.498735	7.065242	-1.867223	-18.430442	43.710113	35.164667	88.604508	-11.375284	7.911819
1.135593	7.492844	2.155728	93.657324	0.124985	0.820446	0.796850	2.671282	5.764549	8.152101	11.190334	0.195308	28.205044	-3.157702	0.000000	-0.989530	-3.842316	3.942196	6.804684	0.118764	28.062179	-2.348234	0.000000	0.142550	0.734283	-0.136083	0.264730	0.976597	-0.144588	0.234195	1.785336	-0.144588	0.162920	1.785336	-0.119073	0.132372	1.497350	-0.110567	0.081453	1.137404	-0.102062	1.018221	8.306357	-0.756853	0.000000	0.000000	24.596708	4.790728	16.777386	0.941089	-24.010297	42.132156	38.301483	88.231173	-6.653169	6.449490	-1.845314	-18.414021	43.654135	34.900604	88.569734	-11.525386	7.210841
1.152542	7.379672	2.086467	93.623158	0.125279	0.820503	0.797486	2.773089	5.659375	8.246969	11.203299	0.195534	28.148353	-3.286561	0.000000	-0.831476	-3.739301	3.644490	6.886820	0.120198	27.975245	-2.064626	0.000000	0.146162	0.713100	-0.118101	0.271438	0.948423	-0.125482	0.240130	1.733830	-0.125482	0.167049	1.733830	-0.103338	0.135726	1.454153	-0.095957	0.083517	1.104591	-0.088575	1.044021	8.066726	-0.656840	0.000000	0.000000	24.380654	4.772678	16.619271	1.055567	-23.933308	41.384215	38.673046	88.174242	-6.971741	5.688253	-1.690005	-18.467554	43.913314	34.641357	88.543398	-11.696036	6.527583
1.169492	7.236341	2.010944	93.600745	0.125603	0.820555	0.798203	2.889595	5.524654	8.340928	11.234091	0.196072	28.112150	-3.436643	0.000000	-0.649035	-3.600314	3.444710	6.982234	0.121863	27.856877	-1.883756	0.000000	0.149647	0.687520	-0.105040	0.277910	0.914401	-0.111605	0.245855	1.671636	-0.111605	0.171032	1.671636	-0.091910	0.138962	1.401990	-0.085345	0.085508	1.064968	-0.078780	1.068915	7.777362	-0.584201	0.000000	0.000000	24.110863	4.751404	16.474967	1.293806	-23.843492	41.021344	38.970003	88.130314	-7.384591	4.889733	-1.525683	-18.570786	44.140220	34.475372	88.528612	-11.782635	6.025588
1.186441	7.061820	1.933589	93.610558	0.125907	0.820599	0.798997	3.015183	5.356140	8.390614	11.278465	0.196846	28.104678	-3.571924	0.000000	-0.443822	-3.430241	3.286384	7.097084	0.123867	27.735192	-1.697248	0.000000	0.151951	0.657391	-0.103202	0.282188	0.874330	-0.109653	0.249640	1.598381	-0.109653	0.173664	1.598381	-0.090302	0.141101	1.340552	-0.083852	0.086825	1.018299	-0.077402	1.085369	7.436539	-0.573981	0.000000	0.000000	23.820053	4.731436	16.301545	1.685171	-23.730331	41.146321	39.149834	88.094032	-7.844114	4.089291	-1.361349	-18.722667	44.300892	34.399423	88.523715	-11.715529	5.736287
1.203390	6.876269	1.837545	93.587743	0.126237	0.820583	0.799825	3.183359	5.168994	8.374236	11.365623	0.198368	28.156025	-3.579373	0.000000	-0.214324	-3.245479	3.122464	7.221548	0.126040	27.629948	-1.523550	0.000000	0.154438	0.626002	-0.095121	0.286806	0.832583	-0.101067	0.253726	1.522062	-0.101067	0.176507	1.522062	-0.083231	0.143411	1.276544	-0.077286	0.088246	0.969677	-0.071341	1.103133	7.081462	-0.529037	0.000000	0.000000	23.560629	4.709804	16.130278	2.077194	-23.636986	41.288174	39.333761	88.084477	-8.141850	3.470655	-1.255617	-18.884251	44.183256	34.476174	88.534676	-11.423487	5.806765
1.220339	6.675152	1.735710	93.557875	0.126588	0.820530	0.800682	3.372114	4.970250	8.350480	11.478034	0.200329	28.237519	-3.580330	0.000000	0.024627	-3.038105	3.094988	7.350896	0.128297	27.500664	-1.539993	0.000000	0.155694	0.592013	-0.088093	0.289139	0.787377	-0.093599	0.255790	1.439420	-0.093599	0.177943	1.439420	-0.077081	0.144578	1.207233	-0.071575	0.088964	0.917028	-0.066070	1.112107	6.696969	-0.489946	0.000000	0.000000	23.324806	4.707500	15.938665	2.559224	-23.533924	41.794315	39.417370	88.093459	-8.470424	2.921741	-1.172924	-19.091554	43.928781	34.692498	88.559695	-10.913245	6.219798
1.237288	6.478071	1.613633	93.490107	0.126923	0.820410	0.801579	3.620214	4.762144	8.214953	11.655897	0.203434	28.391355	-3.384079	0.000000	0.288427	-2.837811	2.915902	7.492542	0.130770	27.431352	-1.394948	0.000000	0.156293	0.559378	-0.075321	0.290251	0.743973	-0.080029	0.256774	1.360072	-0.080029	0.178627	1.360072	-0.065906	0.145134	1.140684	-0.061199	0.089306	0.866477	-0.056491	1.116384	6.327796	-0.418914	0.000000	0.000000	23.152961	4.718425	15.774012	3.033105	-23.453964	42.355461	39.465850	88.093887	-8.810710	2.443250	-1.127277	-19.287071	43.478261	35.003056	88.592300	-10.287474	6.849149
